<svg xmlns="http://www.w3.org/2000/svg" version="1.1" xmlns:xlink="http://www.w3.org/1999/xlink" width="512" height="512" x="0" y="0" viewBox="0 0 24 24" style="enable-background:new 0 0 512 512" xml:space="preserve">
  <g>
    <g fill="#000">
      <path d="M17.61 21.71H6.39a4.11 4.11 0 0 1-4.11-4.11V6.38a4.11 4.11 0 0 1 4.11-4.11h11.22a4.11 4.11 0 0 1 4.11 4.11V17.6a4.11 4.11 0 0 1-4.11 4.11zM6.39 3.77a2.61 2.61 0 0 0-2.61 2.61V17.6a2.61 2.61 0 0 0 2.61 2.61h11.22a2.61 2.61 0 0 0 2.61-2.61V6.38a2.61 2.61 0 0 0-2.61-2.61z" fill="#ffffff" opacity="1" data-original="#000000"></path>
      <path d="M7.86 14.9a2.9 2.9 0 1 1 0-5.8.75.75 0 1 1 0 1.5 1.4 1.4 0 1 0 1.19 2.15h-.46a.75.75 0 1 1 0-1.5H10a.76.76 0 0 1 .75.75 2.91 2.91 0 0 1-2.89 2.9zM12.65 14.89a.74.74 0 0 1-.75-.75v-4.3a.75.75 0 1 1 1.5 0v4.3a.75.75 0 0 1-.75.75zM15.33 14.9a.76.76 0 0 1-.75-.75v-4.3a.75.75 0 1 1 1.5 0v4.3a.75.75 0 0 1-.75.75z" fill="#ffffff" opacity="1" data-original="#000000"></path>
      <path d="M17.93 12.81h-2.6a.75.75 0 1 1 0-1.5h2.6a.75.75 0 1 1 0 1.5zM17.93 10.6h-2.6a.75.75 0 1 1 0-1.5h2.6a.75.75 0 1 1 0 1.5z" fill="#ffffff" opacity="1" data-original="#000000"></path>
    </g>
  </g>
</svg>